# xmcd
#
# Track frame offsets:
#	150
#	17950
#	32380
#	46867
#	59107
#	74792
#	95870
#	101135
#
# Disc length: 1545 seconds
#
# Revision: 1
# Processed by: cddbd v1.5.1PL0 Copyright (c) Steve Scherf et al.
# Submitted via: audiograbber 1.83.01
#
DISCID=76060708
DTITLE=T Bones - Red Dust Rain
DYEAR=1993
DGENRE=Country
TTITLE0=Better Days
TTITLE1=Missing Out
TTITLE2=Melbourne Town
TTITLE3=Comb and Cutter
TTITLE4=Smorgon's Steel Mill
TTITLE5=Another Direction
TTITLE6=Red Dust Rain
TTITLE7=Tramway Hotel
EXTD=
EXTT0=
EXTT1=
EXTT2=
EXTT3=
EXTT4=
EXTT5=
EXTT6=
EXTT7=
PLAYORDER=
